<svg id="Capa_1" enable-background="new 0 0 512.074 512.074" height="512" viewBox="0 0 512.074 512.074" width="512" xmlns="http://www.w3.org/2000/svg"><g><path d="m472.426 78.511c-27.144-50.629-64.291-78.511-104.599-78.511-27.368 0-53.815 13.139-76.482 37.995-13.412 14.707-25.342 33.396-35.308 55.076-9.965-21.681-21.896-40.369-35.308-55.076-22.666-24.856-49.114-37.995-76.482-37.995-40.308 0-77.455 27.882-104.599 78.511-25.557 47.667-39.631 110.714-39.631 177.526s14.074 129.859 39.631 177.526c27.144 50.629 64.291 78.511 104.599 78.511 27.368 0 53.815-13.139 76.482-37.995 13.412-14.707 25.342-33.396 35.308-55.076 9.965 21.68 21.896 40.369 35.308 55.076 22.667 24.856 49.114 37.995 76.482 37.995 40.308 0 77.455-27.882 104.599-78.511 25.557-47.667 39.631-110.714 39.631-177.526s-14.074-129.859-39.631-177.526zm-216.389 283.526c-58.449 0-106-47.552-106-106s47.551-106 106-106 106 47.552 106 106-47.551 106-106 106zm-23.459-239.969c-63.85 11.148-112.541 66.977-112.541 133.969s48.691 122.821 112.541 133.969c-15.772 26.607-35.364 41.485-55.411 41.485-21.491 0-42.443-17.001-58.998-47.871-18.142-33.831-28.132-79.141-28.132-127.583s9.991-93.752 28.132-127.583c16.554-30.87 37.506-47.871 58.998-47.871 20.048 0 39.639 14.878 55.411 41.485zm46.918 267.938c63.85-11.148 112.541-66.977 112.541-133.969s-48.691-122.821-112.541-133.969c15.772-26.607 35.364-41.485 55.411-41.485 21.491 0 42.443 17.001 58.998 47.871 18.142 33.831 28.132 79.141 28.132 127.583s-9.991 93.752-28.132 127.583c-16.554 30.87-37.506 47.871-58.998 47.871-20.047 0-39.639-14.878-55.411-41.485zm-249.479-133.969c0-122.524 52.311-226.037 114.23-226.037 16.953 0 33.582 7.908 48.698 22.376-5.178-1.176-10.444-1.793-15.778-1.793-65.68 0-117.13 90.246-117.13 205.454s51.45 205.454 117.13 205.454c5.334 0 10.6-.618 15.778-1.793-15.116 14.469-31.745 22.376-48.698 22.376-61.919 0-114.23-103.512-114.23-226.037zm337.81 226.037c-16.953 0-33.582-7.908-48.698-22.376 5.178 1.176 10.444 1.793 15.778 1.793 65.68 0 117.13-90.246 117.13-205.454s-51.45-205.454-117.13-205.454c-5.334 0-10.6.618-15.778 1.793 15.116-14.468 31.746-22.376 48.698-22.376 61.919 0 114.23 103.513 114.23 226.037s-52.311 226.037-114.23 226.037z"/></g></svg>