<?xml version="1.0"?>
<svg xmlns="http://www.w3.org/2000/svg" width="512" height="512" viewBox="0 0 128 128"><g><path d="M110,91.505H68.225L100.2,59.532v4.879a1.75,1.75,0,0,0,3.5,0v-9.1a1.749,1.749,0,0,0-1.75-1.75h-9.1a1.75,1.75,0,0,0,0,3.5h4.881L64,90.78,27.289,54.069a1.75,1.75,0,0,0-2.475,2.475L59.775,91.505H18a1.75,1.75,0,0,0-1.75,1.75v6.22a1.751,1.751,0,0,0,1.75,1.75h92a1.75,1.75,0,0,0,1.75-1.75v-6.22A1.749,1.749,0,0,0,110,91.505Zm-1.75,3.5v2.719H19.75V95.005Z"/><path d="M110,108.332H18a1.75,1.75,0,0,0,0,3.5h92a1.75,1.75,0,0,0,0-3.5Z"/><path d="M38.375,45.375h5.938a19.682,19.682,0,0,0,4.532,10.931l-4.2,4.2a1.75,1.75,0,1,0,2.475,2.474l4.2-4.2A19.689,19.689,0,0,0,62.25,63.312V69.25a1.75,1.75,0,0,0,3.5,0V63.312A19.689,19.689,0,0,0,76.681,58.78l4.2,4.2a1.749,1.749,0,1,0,2.474-2.474l-4.2-4.2a19.689,19.689,0,0,0,4.532-10.931h5.938a1.75,1.75,0,0,0,0-3.5H83.687a19.689,19.689,0,0,0-4.532-10.931l4.2-4.2a1.749,1.749,0,0,0-2.474-2.474l-4.2,4.2A19.689,19.689,0,0,0,65.75,23.938V18a1.75,1.75,0,0,0-3.5,0v5.938A19.689,19.689,0,0,0,51.319,28.47l-4.2-4.2a1.75,1.75,0,1,0-2.475,2.474l4.2,4.2a19.682,19.682,0,0,0-4.532,10.931H38.375a1.75,1.75,0,0,0,0,3.5ZM64,27.35A16.275,16.275,0,1,1,47.724,43.625,16.292,16.292,0,0,1,64,27.35Z"/><path d="M55.373,43.625A8.637,8.637,0,0,1,64,35a1.75,1.75,0,0,0,0-3.5A12.141,12.141,0,0,0,51.873,43.625a1.75,1.75,0,0,0,3.5,0Z"/></g></svg>
